<svg width="91" height="40" viewBox="0 0 91 40" fill="none" xmlns="http://www.w3.org/2000/svg">
<path d="M17.7761 15.5555V6.66663H-0.00170898V15.5555H17.7761Z" fill="#5575A5"/>
<path d="M17.7757 24.4443C12.8665 24.4443 8.88682 28.424 8.88682 33.3332L-0.000622996 33.3336L-0.000622994 33.1042C0.121538 23.4294 7.97192 15.6168 17.6613 15.5558L26.665 15.5562V33.334H17.7761L17.7757 24.4443Z" fill="#5575A5"/>
<path d="M39.1748 26L34.9448 13.4H38.0768L40.6868 22.292L43.2968 13.4H46.4288L42.1988 26H39.1748ZM54.2062 24.974C53.3422 25.838 52.1782 26.27 50.7142 26.27C49.2502 26.27 48.0802 25.838 47.2042 24.974C46.3282 24.11 45.8902 23.006 45.8902 21.662C45.8902 20.318 46.3282 19.22 47.2042 18.368C48.0802 17.504 49.2502 17.072 50.7142 17.072C52.1782 17.072 53.3422 17.504 54.2062 18.368C55.0822 19.22 55.5202 20.318 55.5202 21.662C55.5202 23.006 55.0822 24.11 54.2062 24.974ZM50.7142 23.93C51.3502 23.93 51.8542 23.72 52.2262 23.3C52.5982 22.88 52.7842 22.334 52.7842 21.662C52.7842 20.99 52.5982 20.444 52.2262 20.024C51.8542 19.604 51.3502 19.394 50.7142 19.394C50.0662 19.394 49.5562 19.604 49.1842 20.024C48.8242 20.444 48.6442 20.99 48.6442 21.662C48.6442 22.334 48.8242 22.88 49.1842 23.3C49.5562 23.72 50.0662 23.93 50.7142 23.93ZM57.1035 26V17.324H59.8575V19.142C60.0015 18.518 60.2955 18.038 60.7395 17.702C61.1955 17.354 61.6995 17.18 62.2515 17.18C62.5395 17.18 62.7795 17.204 62.9715 17.252V19.808C62.6475 19.772 62.3715 19.754 62.1435 19.754C60.6195 19.754 59.8575 20.72 59.8575 22.652V26H57.1035ZM69.3567 23.858C69.7407 23.858 70.0587 23.84 70.3107 23.804V26C69.7827 26.096 69.1707 26.144 68.4747 26.144C68.1627 26.144 67.8867 26.126 67.6467 26.09C67.4067 26.054 67.1367 25.976 66.8367 25.856C66.5367 25.724 66.2907 25.55 66.0987 25.334C65.9067 25.118 65.7387 24.806 65.5947 24.398C65.4627 23.99 65.3967 23.51 65.3967 22.958V19.502H64.0287V17.324H65.3967V14.75H68.1507V17.324H70.1127V19.502H68.1507V22.382C68.1507 22.97 68.2527 23.366 68.4567 23.57C68.6607 23.762 68.9607 23.858 69.3567 23.858ZM80.4187 21.212C80.4187 21.572 80.3947 21.974 80.3467 22.418H73.9387C73.9627 22.982 74.1547 23.42 74.5147 23.732C74.8747 24.044 75.3607 24.2 75.9727 24.2C76.8127 24.2 77.3527 23.93 77.5927 23.39H80.2927C80.1607 24.242 79.6927 24.938 78.8887 25.478C78.0967 26.006 77.1247 26.27 75.9727 26.27C74.4967 26.27 73.3327 25.862 72.4807 25.046C71.6287 24.23 71.2027 23.102 71.2027 21.662C71.2027 20.246 71.6287 19.13 72.4807 18.314C73.3327 17.486 74.4667 17.072 75.8827 17.072C77.2267 17.072 78.3187 17.456 79.1587 18.224C79.9987 18.992 80.4187 19.988 80.4187 21.212ZM73.9387 20.708H77.7007C77.6887 20.132 77.5267 19.688 77.2147 19.376C76.9027 19.064 76.4527 18.908 75.8647 18.908C75.2767 18.908 74.8087 19.076 74.4607 19.412C74.1247 19.736 73.9507 20.168 73.9387 20.708ZM80.4943 26L83.6623 21.626L80.5483 17.324H83.8423L85.3363 19.844L86.8483 17.324H90.1423L87.0283 21.626L90.1963 26H86.9023L85.3363 23.408L83.7883 26H80.4943Z" fill="black"/>
</svg>
